<svg xmlns="http://www.w3.org/2000/svg" height="60" width="60" viewBox="0 0 400 400">
    <path fill="#ffffff" d="M149.13,46.46L41.17,165.57V297h213V165h1.22L149.13,46.46zM201.97,224.46c-2.14,8.48 -7.48,17.92 -15.06,23.85c-7.34,6.46 -19.7,13.64 -38.43,13.64c-24.81,0 -38.45,-12.6 -44.02,-19.44c-1.88,-2.05 -3.49,-4.23 -4.75,-6.41c-12.9,-22.2 -5.09,-44.47 8.02,-60.2c2.36,8.15 6.12,13.82 10.44,18.29c-3.8,-27.73 12.4,-49.55 32.11,-63.15c0,20.3 9.4,31.38 17.8,41.92c1.93,-5.31 3.15,-11.4 3.15,-18.67C192.57,169.02 209.8,193.39 201.97,224.46z"/>
    <path fill="#ffffff" d="M149.37,22.54l127.49,142.46l20.14,0l-147.83,-165l-67,73.85l0,-40.85l-33,0l0,77.31l-49.17,54.69l20.43,0z"/>
    <path fill="#ffffff" d="M132.59,231.06c1.8,7.39 7.91,16.12 16.25,16.25c9.28,0.15 16.46,-6.87 16.25,-16.25c-0.34,-14.77 -16.25,-18.49 -16.25,-38.35C137.56,200.76 128.45,214.08 132.59,231.06z"/>
</svg>