<svg xmlns="http://www.w3.org/2000/svg" height="60" width="60" viewBox="0 2 35 35">
    <path fill="#ffffff" d="M5.5,4.34l-3.3,0l0,5.89l3.3,-2.59z"/>
    <path fill="#ffffff" d="M19.08,9.83c0.17,-0.08 0.35,-0.17 0.52,-0.24l-7.51,-5.81L0,13.13h2.2v14.83h6.6V16.97h3.42l0.27,-0.58C13.87,13.4 16.16,11.25 19.08,9.83z"/>
    <path fill="#ffffff" d="M21.98,12.7c-0.93,0.12 -3.01,0.88 -4.61,1.97c-0.9,0.62 -1.76,1.38 -2.56,2.3h0.58v10.99h6.6V14.67l-0.01,0V12.7z"/>
    <path fill="#ffffff" d="M31.74,11.09l-4.91,-4.58L26.48,9.04c-2,0.12 -9.85,1 -12.99,7.81c4.93,-6.21 11.16,-5.39 12.61,-5.09l-0.33,2.38L31.74,11.09z"/>
</svg>